<mxfile host="app.diagrams.net" modified="2021-11-26T08:49:52.613Z" agent="5.0 (Windows NT 10.0; Win64; x64) AppleWebKit/537.36 (KHTML, like Gecko) Chrome/96.0.4664.55 Safari/537.36 Edg/96.0.1054.34" etag="TNXe27JixZ9icN-5920F" version="15.0.2" type="github">
  <diagram id="qv57IGGdY2cf4R_3MenX" name="Page-1">
    <mxGraphModel dx="1038" dy="583" grid="1" gridSize="10" guides="1" tooltips="1" connect="1" arrows="1" fold="1" page="1" pageScale="1" pageWidth="827" pageHeight="1169" math="0" shadow="0">
      <root>
        <mxCell id="0" />
        <mxCell id="1" parent="0" />
        <mxCell id="Nd_B7R5nQ5vgrW6Gl8Iv-4" style="edgeStyle=orthogonalEdgeStyle;rounded=0;orthogonalLoop=1;jettySize=auto;html=1;" edge="1" parent="1" source="Nd_B7R5nQ5vgrW6Gl8Iv-1" target="Nd_B7R5nQ5vgrW6Gl8Iv-2">
          <mxGeometry relative="1" as="geometry" />
        </mxCell>
        <mxCell id="Nd_B7R5nQ5vgrW6Gl8Iv-1" value="&lt;font style=&quot;font-size: 16px&quot;&gt;game1(42)&lt;/font&gt;" style="rounded=0;whiteSpace=wrap;html=1;" vertex="1" parent="1">
          <mxGeometry x="80" y="80" width="130" height="60" as="geometry" />
        </mxCell>
        <mxCell id="Nd_B7R5nQ5vgrW6Gl8Iv-5" style="edgeStyle=orthogonalEdgeStyle;rounded=0;orthogonalLoop=1;jettySize=auto;html=1;entryX=0;entryY=0.5;entryDx=0;entryDy=0;" edge="1" parent="1" source="Nd_B7R5nQ5vgrW6Gl8Iv-2" target="Nd_B7R5nQ5vgrW6Gl8Iv-3">
          <mxGeometry relative="1" as="geometry" />
        </mxCell>
        <mxCell id="Nd_B7R5nQ5vgrW6Gl8Iv-2" value="&lt;font style=&quot;font-size: 16px&quot;&gt;world1&lt;/font&gt;" style="rounded=0;whiteSpace=wrap;html=1;" vertex="1" parent="1">
          <mxGeometry x="350" y="80" width="120" height="60" as="geometry" />
        </mxCell>
        <mxCell id="Nd_B7R5nQ5vgrW6Gl8Iv-3" value="&lt;font style=&quot;font-size: 16px&quot;&gt;game2(43)&lt;/font&gt;" style="rounded=0;whiteSpace=wrap;html=1;" vertex="1" parent="1">
          <mxGeometry x="580" y="80" width="120" height="60" as="geometry" />
        </mxCell>
        <mxCell id="Nd_B7R5nQ5vgrW6Gl8Iv-12" value="&lt;span style=&quot;color: rgb(0 , 0 , 0) ; font-family: &amp;#34;helvetica&amp;#34; ; font-size: 12px ; font-style: normal ; font-weight: 400 ; letter-spacing: normal ; text-align: center ; text-indent: 0px ; text-transform: none ; word-spacing: 0px ; background-color: rgb(248 , 249 , 250) ; display: inline ; float: none&quot;&gt;hash(&quot;42-43&quot;)&lt;/span&gt;" style="text;whiteSpace=wrap;html=1;" vertex="1" parent="1">
          <mxGeometry x="240" y="80" width="100" height="30" as="geometry" />
        </mxCell>
        <mxCell id="Nd_B7R5nQ5vgrW6Gl8Iv-13" style="edgeStyle=orthogonalEdgeStyle;rounded=0;orthogonalLoop=1;jettySize=auto;html=1;" edge="1" parent="1" source="Nd_B7R5nQ5vgrW6Gl8Iv-14" target="Nd_B7R5nQ5vgrW6Gl8Iv-16">
          <mxGeometry relative="1" as="geometry" />
        </mxCell>
        <mxCell id="Nd_B7R5nQ5vgrW6Gl8Iv-14" value="&lt;font style=&quot;font-size: 16px&quot;&gt;game1(42)&lt;/font&gt;" style="rounded=0;whiteSpace=wrap;html=1;" vertex="1" parent="1">
          <mxGeometry x="80" y="200" width="130" height="60" as="geometry" />
        </mxCell>
        <mxCell id="Nd_B7R5nQ5vgrW6Gl8Iv-15" style="edgeStyle=orthogonalEdgeStyle;rounded=0;orthogonalLoop=1;jettySize=auto;html=1;entryX=0;entryY=0.5;entryDx=0;entryDy=0;" edge="1" parent="1" source="Nd_B7R5nQ5vgrW6Gl8Iv-16" target="Nd_B7R5nQ5vgrW6Gl8Iv-17">
          <mxGeometry relative="1" as="geometry" />
        </mxCell>
        <mxCell id="Nd_B7R5nQ5vgrW6Gl8Iv-16" value="&lt;font style=&quot;font-size: 16px&quot;&gt;world1&lt;br&gt;(mailbox)&lt;/font&gt;" style="rounded=0;whiteSpace=wrap;html=1;" vertex="1" parent="1">
          <mxGeometry x="350" y="200" width="120" height="60" as="geometry" />
        </mxCell>
        <mxCell id="Nd_B7R5nQ5vgrW6Gl8Iv-19" style="edgeStyle=orthogonalEdgeStyle;rounded=0;orthogonalLoop=1;jettySize=auto;html=1;exitX=0;exitY=0.25;exitDx=0;exitDy=0;entryX=1;entryY=0.25;entryDx=0;entryDy=0;" edge="1" parent="1" source="Nd_B7R5nQ5vgrW6Gl8Iv-17" target="Nd_B7R5nQ5vgrW6Gl8Iv-16">
          <mxGeometry relative="1" as="geometry" />
        </mxCell>
        <mxCell id="Nd_B7R5nQ5vgrW6Gl8Iv-17" value="&lt;font style=&quot;font-size: 16px&quot;&gt;game2(43)&lt;/font&gt;" style="rounded=0;whiteSpace=wrap;html=1;" vertex="1" parent="1">
          <mxGeometry x="580" y="200" width="120" height="60" as="geometry" />
        </mxCell>
        <mxCell id="Nd_B7R5nQ5vgrW6Gl8Iv-18" value="&lt;span style=&quot;color: rgb(0 , 0 , 0) ; font-family: &amp;#34;helvetica&amp;#34; ; font-size: 12px ; font-style: normal ; font-weight: 400 ; letter-spacing: normal ; text-align: center ; text-indent: 0px ; text-transform: none ; word-spacing: 0px ; background-color: rgb(248 , 249 , 250) ; display: inline ; float: none&quot;&gt;hash(mailbox_name)&lt;/span&gt;" style="text;whiteSpace=wrap;html=1;" vertex="1" parent="1">
          <mxGeometry x="220" y="200" width="100" height="30" as="geometry" />
        </mxCell>
        <mxCell id="Nd_B7R5nQ5vgrW6Gl8Iv-20" value="&lt;div style=&quot;text-align: center&quot;&gt;&lt;span&gt;&lt;font face=&quot;helvetica&quot;&gt;register mailbox&lt;/font&gt;&lt;/span&gt;&lt;/div&gt;" style="text;whiteSpace=wrap;html=1;" vertex="1" parent="1">
          <mxGeometry x="480" y="190" width="90" height="30" as="geometry" />
        </mxCell>
        <mxCell id="Nd_B7R5nQ5vgrW6Gl8Iv-21" style="edgeStyle=orthogonalEdgeStyle;rounded=0;orthogonalLoop=1;jettySize=auto;html=1;" edge="1" parent="1" source="Nd_B7R5nQ5vgrW6Gl8Iv-22" target="Nd_B7R5nQ5vgrW6Gl8Iv-24">
          <mxGeometry relative="1" as="geometry" />
        </mxCell>
        <mxCell id="Nd_B7R5nQ5vgrW6Gl8Iv-22" value="&lt;font style=&quot;font-size: 16px&quot;&gt;game1(42)&lt;/font&gt;" style="rounded=0;whiteSpace=wrap;html=1;" vertex="1" parent="1">
          <mxGeometry x="78" y="330" width="130" height="60" as="geometry" />
        </mxCell>
        <mxCell id="Nd_B7R5nQ5vgrW6Gl8Iv-23" style="edgeStyle=orthogonalEdgeStyle;rounded=0;orthogonalLoop=1;jettySize=auto;html=1;entryX=0;entryY=0.5;entryDx=0;entryDy=0;" edge="1" parent="1" source="Nd_B7R5nQ5vgrW6Gl8Iv-24" target="Nd_B7R5nQ5vgrW6Gl8Iv-26">
          <mxGeometry relative="1" as="geometry" />
        </mxCell>
        <mxCell id="Nd_B7R5nQ5vgrW6Gl8Iv-24" value="&lt;font style=&quot;font-size: 16px&quot;&gt;world1&lt;br&gt;(entity_stub)&lt;/font&gt;" style="rounded=0;whiteSpace=wrap;html=1;" vertex="1" parent="1">
          <mxGeometry x="348" y="330" width="120" height="60" as="geometry" />
        </mxCell>
        <mxCell id="Nd_B7R5nQ5vgrW6Gl8Iv-25" style="edgeStyle=orthogonalEdgeStyle;rounded=0;orthogonalLoop=1;jettySize=auto;html=1;exitX=0;exitY=0.25;exitDx=0;exitDy=0;entryX=1;entryY=0.25;entryDx=0;entryDy=0;" edge="1" parent="1" source="Nd_B7R5nQ5vgrW6Gl8Iv-26" target="Nd_B7R5nQ5vgrW6Gl8Iv-24">
          <mxGeometry relative="1" as="geometry" />
        </mxCell>
        <mxCell id="Nd_B7R5nQ5vgrW6Gl8Iv-26" value="&lt;font style=&quot;font-size: 16px&quot;&gt;game2(43)&lt;br&gt;(entity)&lt;br&gt;&lt;/font&gt;" style="rounded=0;whiteSpace=wrap;html=1;" vertex="1" parent="1">
          <mxGeometry x="578" y="330" width="120" height="60" as="geometry" />
        </mxCell>
        <mxCell id="Nd_B7R5nQ5vgrW6Gl8Iv-27" value="&lt;span style=&quot;color: rgb(0 , 0 , 0) ; font-family: &amp;#34;helvetica&amp;#34; ; font-size: 12px ; font-style: normal ; font-weight: 400 ; letter-spacing: normal ; text-align: center ; text-indent: 0px ; text-transform: none ; word-spacing: 0px ; background-color: rgb(248 , 249 , 250) ; display: inline ; float: none&quot;&gt;hash(entity_id)&lt;/span&gt;" style="text;whiteSpace=wrap;html=1;" vertex="1" parent="1">
          <mxGeometry x="218" y="330" width="100" height="30" as="geometry" />
        </mxCell>
        <mxCell id="Nd_B7R5nQ5vgrW6Gl8Iv-28" value="&lt;div style=&quot;text-align: center&quot;&gt;&lt;span&gt;&lt;font face=&quot;helvetica&quot;&gt;register mailbox&lt;/font&gt;&lt;/span&gt;&lt;/div&gt;" style="text;whiteSpace=wrap;html=1;" vertex="1" parent="1">
          <mxGeometry x="478" y="320" width="90" height="30" as="geometry" />
        </mxCell>
        <mxCell id="Nd_B7R5nQ5vgrW6Gl8Iv-29" value="&lt;div style=&quot;text-align: center&quot;&gt;&lt;span&gt;&lt;font face=&quot;helvetica&quot; style=&quot;font-size: 16px&quot;&gt;RPC TO HOST&lt;/font&gt;&lt;/span&gt;&lt;/div&gt;" style="text;whiteSpace=wrap;html=1;" vertex="1" parent="1">
          <mxGeometry x="320" y="150" width="136" height="30" as="geometry" />
        </mxCell>
        <mxCell id="Nd_B7R5nQ5vgrW6Gl8Iv-31" value="&lt;div style=&quot;text-align: center&quot;&gt;&lt;span&gt;&lt;font face=&quot;helvetica&quot; style=&quot;font-size: 16px&quot;&gt;RPC BY MAILBOX&lt;/font&gt;&lt;/span&gt;&lt;/div&gt;" style="text;whiteSpace=wrap;html=1;" vertex="1" parent="1">
          <mxGeometry x="318" y="270" width="142" height="30" as="geometry" />
        </mxCell>
        <mxCell id="Nd_B7R5nQ5vgrW6Gl8Iv-32" value="&lt;div style=&quot;text-align: center&quot;&gt;&lt;span&gt;&lt;font face=&quot;helvetica&quot; style=&quot;font-size: 16px&quot;&gt;RPC TO ENTITY&lt;/font&gt;&lt;/span&gt;&lt;/div&gt;" style="text;whiteSpace=wrap;html=1;" vertex="1" parent="1">
          <mxGeometry x="320" y="400" width="136" height="30" as="geometry" />
        </mxCell>
      </root>
    </mxGraphModel>
  </diagram>
</mxfile>
